<?xml version="1.0" standalone="no"?>
<!DOCTYPE svg PUBLIC "-//W3C//DTD SVG 20010904//EN"
 "http://www.w3.org/TR/2001/REC-SVG-20010904/DTD/svg10.dtd">
<svg version="1.0" xmlns="http://www.w3.org/2000/svg"
 width="1024.000000pt" height="1024.000000pt" viewBox="0 0 1024.000000 1024.000000"
 preserveAspectRatio="xMidYMid meet">

<g transform="translate(0.000000,1024.000000) scale(0.100000,-0.100000)"
fill="#000000" stroke="none">
<path d="M5404 9336 c-201 -63 -412 -268 -510 -495 -63 -146 -71 -299 -21
-397 29 -57 39 -66 131 -128 89 -59 123 -69 233 -65 81 4 98 8 164 42 154 78
310 241 398 417 79 159 93 334 35 447 -32 63 -105 124 -202 169 -60 27 -158
32 -228 10z m280 -55 c4 -5 -3 -7 -14 -4 -23 6 -26 13 -6 13 8 0 17 -4 20 -9z
m-254 -52 c-75 -45 -167 -110 -200 -140 -19 -18 -46 -42 -59 -53 l-25 -21 23
32 c36 53 130 130 204 167 77 39 113 48 57 15z m257 -14 c28 -8 62 -24 75 -35
14 -10 29 -16 32 -12 4 4 7 2 5 -3 -1 -5 10 -36 26 -68 25 -54 27 -66 23 -150
-8 -164 -90 -323 -245 -474 -56 -55 -96 -84 -169 -120 -85 -42 -103 -47 -177
-51 -75 -3 -87 -1 -137 25 -47 24 -59 37 -84 85 -25 50 -29 67 -28 143 1 102
20 173 75 280 96 185 266 336 430 380 68 18 112 18 174 0z"/>
<path d="M5502 9105 c-23 -81 -94 -290 -102 -298 -11 -12 -83 27 -129 68 -43
39 -51 42 -51 18 0 -29 50 -83 106 -115 66 -36 66 -32 -2 -206 -24 -63 -44
-117 -44 -120 1 -16 67 101 112 196 l48 102 53 0 c64 0 172 25 200 46 23 17
17 17 -168 -2 -71 -7 -77 0 -60 66 25 94 57 260 52 273 -2 7 -9 -6 -15 -28z"/>
<path d="M4180 8721 c-115 -37 -201 -102 -267 -202 -26 -38 -44 -72 -40 -75 3
-3 10 3 16 14 14 27 40 52 52 52 6 0 0 -18 -12 -40 -13 -22 -26 -40 -31 -40
-4 0 -8 -7 -8 -15 0 -12 -13 -6 -46 20 -84 63 -172 68 -289 15 -71 -32 -191
-158 -248 -260 -73 -131 -101 -225 -101 -345 -1 -90 2 -107 28 -163 44 -96
129 -162 208 -162 90 0 193 54 284 147 108 111 199 284 219 414 l7 46 56 -33
c72 -44 120 -58 141 -41 37 30 153 202 199 294 52 102 92 223 92 275 0 38 -50
92 -98 106 -53 16 -97 14 -162 -7z m142 -108 c38 -34 12 -140 -65 -266 -29
-46 -66 -101 -84 -122 l-32 -38 -42 13 c-63 21 -113 74 -135 142 -17 55 -17
59 1 98 28 62 127 143 214 175 52 19 121 18 143 -2z m-559 -169 c98 -33 177
-153 177 -267 -1 -222 -167 -498 -356 -591 -45 -23 -73 -29 -119 -29 -68 0
-105 15 -154 65 -98 99 -111 246 -40 444 69 188 222 351 363 385 50 11 79 10
129 -7z"/>
<path d="M3600 8373 c-49 -17 -119 -65 -162 -110 -30 -32 -98 -141 -98 -157 1
-6 12 10 25 35 53 102 174 206 266 229 84 21 168 -22 216 -113 38 -72 12 -253
-55 -382 -74 -141 -227 -254 -328 -242 -58 6 -110 47 -144 113 -33 64 -34 178
-3 278 25 78 15 78 -11 1 -55 -162 -13 -335 95 -391 114 -59 317 67 411 256
65 130 85 287 47 370 -51 113 -143 153 -259 113z"/>
<path d="M3585 8306 c-138 -70 -229 -205 -249 -368 -6 -52 6 -134 26 -176 16
-32 70 -70 112 -78 44 -8 135 35 197 93 47 44 109 141 109 170 0 8 6 21 14 29
16 16 30 101 29 181 -1 131 -123 208 -238 149z m55 -113 c0 -21 3 -48 6 -60
l6 -22 36 20 c20 10 42 19 48 19 14 0 21 -33 20 -96 -1 -48 -2 -48 -56 -79
l-55 -31 3 -65 4 -66 -63 -27 c-72 -31 -81 -26 -72 41 7 49 -1 53 -49 23 -53
-32 -58 -28 -58 54 l0 73 48 24 c26 13 50 29 54 34 4 6 8 40 8 76 l0 66 48 25
c65 35 72 35 72 -9z"/>
<path d="M7785 8681 c-97 -26 -152 -68 -166 -127 -5 -21 -11 -100 -14 -174 -3
-74 -11 -158 -17 -186 -14 -67 -4 -117 32 -158 30 -34 30 -34 30 -163 l0 -129
35 -17 c20 -9 37 -17 38 -17 1 0 1 56 -1 125 -3 131 -2 136 42 119 14 -5 16
-27 16 -139 l0 -133 73 -6 c80 -7 150 6 233 46 l49 23 3 137 c2 130 4 139 27
162 28 28 40 81 30 133 -4 21 -9 107 -12 191 -2 97 -8 150 -14 146 -6 -3 -9 9
-7 30 3 45 -34 86 -105 116 -55 24 -216 36 -272 21z m-141 -177 c8 -21 8 -24
-3 -24 -5 0 -11 9 -14 20 -6 24 8 27 17 4z m486 -39 c-7 -8 -17 -15 -22 -15
-6 0 -5 7 2 15 7 8 17 15 22 15 6 0 5 -7 -2 -15z m-412 -40 c-3 -3 -9 2 -12
12 -6 14 -5 15 5 6 7 -7 10 -15 7 -18z m-1 -47 c-3 -7 -5 -2 -5 12 0 14 2 19
5 13 2 -7 2 -19 0 -25z"/>
<path d="M6878 8586 c-31 -13 -91 -43 -135 -68 -95 -56 -363 -200 -793 -428
-179 -95 -372 -199 -430 -230 -58 -32 -181 -97 -275 -145 -141 -73 -245 -127
-288 -152 -4 -3 -3 -11 4 -19 6 -8 10 -16 8 -18 -2 -2 -67 -34 -144 -72 l-140
-69 0 -194 0 -193 -125 -68 c-69 -37 -208 -110 -310 -163 -102 -53 -213 -113
-248 -132 -35 -19 -68 -35 -73 -35 -5 0 -9 30 -9 68 0 37 -3 110 -6 164 -10
138 -13 139 -190 39 -117 -65 -143 -77 -163 -69 -15 5 -28 5 -34 -1 -5 -5 -17
-7 -26 -4 -14 4 -14 3 -1 -6 18 -12 24 -8 -95 -70 -169 -87 -255 -183 -308
-340 l-22 -66 0 -1130 c0 -900 3 -1139 13 -1173 7 -25 30 -60 53 -83 35 -35
44 -39 91 -39 28 0 75 8 104 17 45 14 55 22 64 48 17 50 80 105 192 166 96 52
227 123 723 396 110 61 270 147 355 193 85 46 180 98 210 115 30 18 136 77
235 130 346 188 482 262 720 395 132 73 346 191 475 262 129 72 279 155 332
185 145 82 208 96 304 71 l46 -13 53 57 c30 32 70 91 90 132 34 67 38 85 46
193 5 65 8 593 6 1173 l-2 1056 -25 49 c-48 92 -160 121 -282 71z m-280 -982
c30 -8 28 -24 -4 -24 -22 0 -149 -62 -434 -212 -47 -25 -132 -70 -190 -100
-58 -31 -130 -69 -160 -85 -58 -32 -243 -128 -520 -271 -91 -46 -257 -133
-370 -192 -113 -59 -353 -183 -535 -275 -368 -187 -497 -259 -537 -302 -15
-15 -39 -55 -53 -87 -20 -45 -29 -56 -36 -45 -27 43 16 141 84 193 35 27 205
117 617 328 667 343 1702 880 1795 933 63 36 227 119 260 132 35 14 52 15 83
7z m-451 -834 c-3 -143 -4 -260 -1 -260 3 0 27 11 54 25 27 14 50 21 52 17 3
-6 3 -60 -1 -119 -1 -15 -16 -30 -53 -50 -29 -15 -54 -34 -54 -40 -1 -7 -2
-64 -3 -126 l-1 -112 -67 -33 c-38 -18 -72 -32 -78 -32 -6 0 -11 44 -12 107
-2 58 -5 108 -7 110 -2 2 -84 -37 -182 -86 -98 -50 -182 -91 -187 -91 -6 0 -8
34 -5 78 4 78 5 80 128 313 68 129 152 288 186 354 l62 120 79 42 c43 24 82
43 87 43 4 0 6 -117 3 -260z m-2311 33 c-3 -16 -8 -53 -12 -83 -6 -52 -30
-118 -62 -167 -18 -29 -35 -21 -78 35 -29 38 -34 53 -34 98 0 60 -2 57 105
113 75 39 88 39 81 4z m1594 -232 c72 -51 109 -214 91 -396 -25 -250 -136
-447 -296 -526 -55 -27 -73 -31 -118 -27 -132 11 -184 124 -174 378 6 143 25
219 90 343 66 129 169 223 271 248 43 10 106 1 136 -20z m-670 -515 l0 -263
51 24 c28 14 52 23 53 21 2 -2 1 -35 -2 -73 l-4 -70 -49 -28 -49 -27 0 -125 0
-124 -71 -36 c-38 -19 -76 -35 -83 -35 -10 0 -12 27 -10 115 1 63 -2 115 -6
115 -5 0 -91 -43 -192 -95 -100 -52 -186 -95 -190 -95 -13 0 5 156 23 195 10
22 48 94 84 160 36 66 100 188 142 270 42 83 88 172 102 200 23 44 36 55 106
92 44 23 83 42 88 42 4 1 7 -118 7 -263z m-983 -318 c-2 -35 -3 -7 -3 62 0 69
1 97 3 63 2 -35 2 -91 0 -125z"/>
<path d="M3762 6040 c0 -14 2 -19 5 -12 2 6 2 18 0 25 -3 6 -5 1 -5 -13z"/>
<path d="M5964 6698 c-108 -212 -190 -367 -203 -382 -19 -23 -21 -23 106 41
56 29 104 57 108 62 6 11 16 311 9 311 -2 0 -11 -15 -20 -32z"/>
<path d="M5245 6426 c-17 -7 -43 -28 -58 -46 -66 -77 -87 -151 -94 -320 -4
-114 -2 -144 14 -195 23 -74 48 -91 102 -69 75 30 128 121 152 259 15 87 8
291 -12 325 -36 64 -50 70 -104 46z"/>
<path d="M4579 5995 c-9 -16 -59 -112 -112 -211 -54 -100 -97 -184 -97 -187 0
-8 193 94 213 112 16 15 17 34 15 167 -3 143 -4 148 -19 119z"/>
<path d="M1766 8480 c-3 -8 -22 -62 -42 -120 -30 -88 -138 -314 -202 -425
-275 -475 -311 -581 -268 -786 33 -156 156 -309 291 -363 329 -132 681 44 751
376 21 96 12 196 -27 312 -30 89 -69 165 -239 466 -106 188 -166 311 -221 455
-21 56 -40 93 -43 85z m-172 -621 c-9 -30 -22 -67 -29 -84 -22 -49 -83 -302
-101 -417 -15 -98 -18 -107 -34 -98 -33 18 -50 41 -50 70 0 32 73 244 119 343
17 37 31 70 31 73 0 3 13 33 29 67 16 34 32 72 36 85 4 13 9 22 11 19 2 -2 -3
-28 -12 -58z m270 -390 c3 -17 6 -56 6 -85 l0 -54 75 0 75 0 0 -94 c0 -107 1
-106 -97 -106 l-53 0 0 -49 c0 -27 -3 -63 -6 -80 l-6 -31 -78 0 -78 0 -7 65
c-4 35 -5 71 -1 80 4 13 -7 15 -74 15 l-80 0 0 100 0 100 75 0 75 0 0 78 c0
43 3 82 7 85 3 4 41 7 83 7 l78 0 6 -31z"/>
<path d="M3013 7734 c-94 -46 -149 -129 -165 -248 -14 -100 3 -163 53 -190
l35 -19 55 25 c72 33 119 75 148 132 47 95 47 245 0 291 -37 37 -67 39 -126 9z
m95 -107 c2 -21 -1 -37 -7 -37 -6 0 -11 -5 -11 -11 0 -5 5 -7 10 -4 16 10 12
-48 -5 -71 -8 -12 -28 -24 -44 -27 -22 -5 -36 -17 -50 -46 -24 -46 -37 -57
-45 -36 -3 8 -1 15 4 15 6 0 10 5 10 10 0 6 -11 10 -25 10 -22 0 -25 4 -25 38
0 67 17 108 58 135 20 14 47 28 59 31 11 4 27 14 34 22 19 23 34 11 37 -29z"/>
<path d="M8090 7665 c-39 -22 -119 -47 -180 -56 -51 -7 -49 -8 20 -4 82 4 200
41 200 62 0 16 -9 16 -40 -2z"/>
<path d="M8060 7575 c-36 -13 -110 -28 -165 -34 l-100 -10 115 3 c121 4 220
27 220 53 0 7 -1 13 -2 12 -2 -1 -32 -11 -68 -24z"/>
<path d="M8090 7510 c-22 -14 -86 -31 -150 -40 l-55 -7 50 -1 c60 -2 187 29
193 46 4 14 -17 16 -38 2z"/>
<path d="M8070 7419 c-13 -6 -60 -16 -105 -23 -44 -8 -66 -14 -48 -15 43 -1
184 26 197 39 13 13 -10 12 -44 -1z"/>
<path d="M8109 7365 c-23 -23 -165 -55 -244 -55 -68 0 -170 22 -189 41 -14 13
-29 11 -20 -2 3 -6 32 -23 63 -37 80 -36 233 -38 339 -3 62 20 72 27 72 47 0
28 -1 29 -21 9z"/>
<path d="M7648 7274 c15 -26 114 -63 189 -70 106 -10 293 33 293 68 0 15 -4
16 -27 7 -103 -41 -281 -52 -369 -23 -27 9 -53 21 -58 25 -18 16 -38 11 -28
-7z"/>
<path d="M8085 7200 c-22 -10 -59 -24 -83 -31 -72 -21 -262 -15 -296 9 -6 4
-24 14 -40 21 -25 10 -28 10 -17 -2 6 -8 35 -25 64 -38 74 -33 231 -34 335 -1
40 13 76 30 79 38 8 23 2 23 -42 4z"/>
<path d="M8420 7070 c8 -5 20 -10 25 -10 6 0 3 5 -5 10 -8 5 -19 10 -25 10 -5
0 -3 -5 5 -10z"/>
<path d="M8359 7047 c-19 -11 -88 -49 -154 -83 -66 -35 -119 -68 -118 -73 2
-6 -4 -8 -12 -4 -14 5 -15 -13 -13 -133 l3 -139 114 -58 113 -59 172 82 c94
45 191 91 216 104 l45 22 3 106 c3 103 2 107 -20 115 -13 4 -30 8 -38 8 -8 1
-14 7 -12 14 1 7 -2 10 -8 6 -5 -3 -10 -2 -10 2 0 13 -88 53 -103 47 -8 -3
-25 5 -38 16 -13 12 -18 18 -10 14 9 -5 12 -3 7 4 -4 7 -17 11 -29 10 -12 0
-34 4 -48 10 -21 9 -32 7 -60 -11z m17 -44 c-10 -10 -19 5 -10 18 6 11 8 11
12 0 2 -7 1 -15 -2 -18z m140 -20 c-6 -6 -36 9 -36 18 0 5 9 4 20 -3 10 -7 18
-14 16 -15z m-206 -7 c-6 -6 -18 -5 -32 1 -21 10 -21 10 9 9 19 -1 28 -5 23
-10z m295 -6 c3 -5 2 -10 -4 -10 -5 0 -13 5 -16 10 -3 6 -2 10 4 10 5 0 13 -4
16 -10z m-400 -40 c-3 -5 -11 -10 -16 -10 -6 0 -7 5 -4 10 3 6 11 10 16 10 6
0 7 -4 4 -10z m458 -18 c15 -16 15 -18 -3 -18 -13 0 -20 7 -20 18 0 10 2 18 3
18 2 0 11 -8 20 -18z m32 8 c3 -6 -1 -7 -9 -4 -18 7 -21 14 -7 14 6 0 13 -4
16 -10z"/>
<path d="M8515 7020 c3 -5 11 -10 16 -10 6 0 7 5 4 10 -3 6 -11 10 -16 10 -6
0 -7 -4 -4 -10z"/>
<path d="M3763 6973 c9 -2 25 -2 35 0 9 3 1 5 -18 5 -19 0 -27 -2 -17 -5z"/>
<path d="M3570 6836 c0 -2 7 -7 16 -10 8 -3 12 -2 9 4 -6 10 -25 14 -25 6z"/>
<path d="M3557 6819 c7 -7 15 -10 18 -7 3 3 -2 9 -12 12 -14 6 -15 5 -6 -5z"/>
<path d="M9030 6684 c-69 -31 -145 -62 -170 -71 -25 -8 -63 -23 -85 -32 -22
-10 -56 -25 -75 -34 l-35 -16 3 -119 3 -119 52 -28 c29 -15 79 -44 111 -63
l59 -35 223 112 c123 62 235 121 249 132 23 19 25 26 25 107 l-1 87 -37 24
c-20 13 -73 43 -117 67 l-80 42 -125 -54z"/>
<path d="M7558 6558 c5 -5 16 -8 23 -6 8 3 3 7 -10 11 -17 4 -21 3 -13 -5z"/>
<path d="M7504 6545 c-18 -14 -18 -14 4 -8 12 3 22 9 22 14 0 12 -3 11 -26 -6z"/>
<path d="M7663 6550 c27 -5 59 -16 73 -24 13 -9 24 -13 24 -10 0 4 11 -6 25
-22 14 -16 25 -24 25 -17 0 34 -100 84 -165 82 -22 -1 -16 -4 18 -9z"/>
<path d="M7420 6490 c-6 -11 -8 -20 -6 -20 3 0 10 9 16 20 6 11 8 20 6 20 -3
0 -10 -9 -16 -20z"/>
<path d="M7855 6380 c-4 -12 -20 -29 -36 -39 -16 -10 -26 -21 -22 -25 4 -4 0
-4 -10 0 -16 6 -24 -6 -11 -19 10 -9 46 12 39 23 -3 6 0 7 8 4 14 -5 56 60 45
71 -3 4 -9 -3 -13 -15z"/>
<path d="M7590 6270 c-9 -6 -10 -10 -3 -10 6 0 15 5 18 10 8 12 4 12 -15 0z"/>
<path d="M2120 6231 c0 -6 4 -13 10 -16 6 -3 7 1 4 9 -7 18 -14 21 -14 7z"/>
<path d="M8060 5832 l0 -408 133 -78 c72 -43 218 -129 322 -191 243 -144 403
-235 413 -235 5 0 17 -9 27 -20 19 -21 45 -26 61 -11 5 4 50 30 99 56 102 54
232 129 257 149 16 12 18 50 20 469 2 252 0 457 -4 457 -4 0 -36 -17 -70 -38
-35 -21 -97 -57 -138 -79 -41 -22 -115 -63 -164 -92 -67 -39 -96 -51 -114 -46
-13 3 -102 51 -198 105 -96 55 -177 100 -181 100 -4 0 -14 6 -22 14 -9 7 -45
29 -81 47 -36 18 -83 44 -105 58 -22 13 -88 53 -147 87 l-108 63 0 -407z m119
279 c156 -79 392 -214 441 -251 24 -18 25 -24 30 -162 l5 -143 110 -57 c61
-32 117 -57 126 -58 20 0 126 52 289 143 69 39 141 76 160 84 l35 14 -24 -19
c-21 -17 -153 -90 -336 -187 -38 -20 -81 -48 -93 -62 -14 -15 -27 -22 -30 -16
-4 5 -60 38 -124 72 l-118 62 0 -161 c0 -121 -3 -160 -12 -160 -7 0 -35 13
-63 28 -127 71 -245 137 -295 165 -122 66 -146 81 -157 95 -10 12 -13 93 -13
329 0 172 3 313 6 313 4 0 32 -13 63 -29z"/>
<path d="M8280 5851 c0 -28 -5 -53 -10 -56 -6 -4 -26 5 -45 20 l-35 26 1 -63
0 -63 47 -30 c44 -28 47 -33 49 -75 1 -25 2 -50 2 -57 1 -14 100 -65 113 -57
4 3 7 21 5 40 -3 20 0 34 7 34 16 0 119 -40 134 -52 9 -8 12 8 12 75 0 93 -2
97 -66 97 -32 0 -34 2 -34 36 0 48 -38 101 -102 141 -71 45 -78 43 -78 -16z"/>
<path d="M568 5533 c-10 -191 -8 -974 3 -1017 6 -24 24 -57 40 -74 38 -38 160
-98 246 -119 95 -23 324 -23 413 1 126 33 224 89 261 150 18 30 19 57 19 581
-1 468 -3 545 -14 519 -26 -59 -134 -125 -261 -159 -33 -9 -119 -19 -190 -22
-124 -5 -201 3 -312 33 -17 5 -23 2 -23 -11 0 -38 -116 29 -126 73 -3 15 -17
49 -29 75 l-23 48 -4 -78z m155 -222 c-6 -3 -15 -19 -20 -36 l-10 -30 -14 28
c-10 23 -10 30 0 36 10 6 9 10 -4 15 -9 3 -13 10 -10 16 4 6 18 4 37 -6 17 -9
26 -19 21 -23z m483 -177 c16 -4 33 -32 63 -99 23 -51 41 -100 41 -109 0 -21
-89 -198 -104 -208 -6 -5 -74 -7 -150 -5 l-140 2 -50 108 c-41 90 -48 112 -38
127 6 10 23 47 37 81 46 115 36 109 188 109 72 0 142 -3 153 -6z"/>
<path d="M1000 5045 l0 -45 65 0 65 0 0 45 0 45 -65 0 -65 0 0 -45z"/>
<path d="M1000 4810 l0 -40 65 0 65 0 0 40 0 40 -65 0 -65 0 0 -40z"/>
<path d="M6698 5517 c-53 -28 -95 -55 -92 -58 2 -3 37 -23 79 -43 74 -36 75
-36 112 -21 56 24 153 88 150 100 -5 16 -109 75 -132 75 -11 -1 -63 -24 -117
-53z"/>
<path d="M6898 5397 c-59 -34 -107 -65 -108 -69 0 -14 104 -77 137 -84 23 -5
41 -1 66 15 40 25 57 27 57 6 0 -8 -14 -22 -31 -31 l-31 -16 31 -19 c17 -10
34 -19 36 -19 3 0 51 -27 107 -61 165 -98 158 -96 242 -49 41 22 78 51 86 66
13 24 12 27 -10 44 -44 34 -459 280 -470 280 -3 0 -53 -28 -112 -63z"/>
<path d="M6483 5402 c-40 -20 -73 -39 -73 -43 0 -9 134 -69 156 -69 10 0 48
18 83 39 l64 39 -71 36 c-40 20 -75 36 -79 35 -5 0 -41 -17 -80 -37z"/>
<path d="M6279 5287 l-94 -50 78 -38 c63 -30 84 -36 103 -29 31 12 130 75 138
88 6 10 -42 42 -99 66 -31 13 -36 12 -126 -37z"/>
<path d="M6637 5245 c-42 -24 -85 -50 -97 -58 l-21 -14 23 -15 c46 -30 108
-58 128 -58 34 0 200 91 200 110 0 9 -93 59 -129 70 -24 7 -41 1 -104 -35z"/>
<path d="M6075 5174 c-44 -25 -88 -47 -97 -51 -10 -3 -18 -9 -18 -14 0 -12
130 -71 157 -71 20 0 193 91 192 102 0 3 -23 16 -51 30 -109 53 -95 53 -183 4z"/>
<path d="M6865 5151 c-27 -15 -69 -39 -92 -53 l-42 -24 54 -31 c86 -50 87 -50
169 2 108 67 109 68 37 104 -33 17 -64 31 -68 31 -4 0 -30 -13 -58 -29z"/>
<path d="M6361 5095 l-94 -53 46 -30 c75 -47 105 -57 138 -45 34 13 178 96
179 103 0 7 -152 80 -165 79 -5 0 -52 -24 -104 -54z"/>
<path d="M7522 5102 c-22 -15 -41 -29 -41 -32 -1 -3 25 -19 57 -36 l57 -32 48
24 c26 14 47 28 47 32 0 8 -66 47 -103 61 -18 7 -32 3 -65 -17z"/>
<path d="M5880 5062 c-154 -78 -199 -106 -190 -117 20 -24 131 -67 159 -62 31
6 144 70 178 100 28 25 19 39 -49 73 -56 28 -53 28 -98 6z"/>
<path d="M7345 5005 c-84 -49 -105 -63 -105 -74 0 -4 25 -20 55 -36 l55 -30
77 40 c41 22 89 50 105 62 l30 21 -44 25 c-73 43 -84 42 -173 -8z"/>
<path d="M6590 4992 c-47 -26 -98 -56 -113 -67 -33 -21 -29 -27 44 -69 l46
-26 75 39 c112 59 171 95 174 106 3 10 -110 66 -131 65 -5 0 -48 -22 -95 -48z"/>
<path d="M6095 4938 c-101 -57 -107 -62 -89 -75 43 -32 117 -64 138 -59 28 7
186 105 186 115 0 10 -71 58 -104 71 -19 7 -43 -2 -131 -52z"/>
<path d="M6952 4975 c-24 -14 -57 -34 -73 -46 l-31 -21 48 -34 c26 -19 59 -34
73 -34 27 0 161 75 161 90 0 12 -100 70 -120 70 -8 0 -34 -11 -58 -25z"/>
<path d="M5585 4904 c-87 -46 -175 -99 -175 -106 0 -4 34 -25 76 -46 l75 -37
73 38 c39 21 89 52 109 69 l37 31 -57 33 c-64 37 -94 41 -138 18z"/>
<path d="M7133 4882 c-24 -15 -43 -30 -43 -34 0 -3 23 -20 52 -36 l52 -30 35
19 c20 10 45 26 56 34 23 18 19 23 -50 55 -50 24 -51 24 -102 -8z"/>
<path d="M6263 4817 c-51 -28 -93 -54 -93 -57 0 -11 119 -70 141 -70 26 0 166
78 188 104 11 13 4 19 -55 46 -37 16 -72 30 -78 30 -6 0 -53 -24 -103 -53z"/>
<path d="M6695 4825 c-33 -19 -60 -40 -60 -47 0 -7 25 -26 56 -42 l57 -30 68
36 c38 20 69 41 69 47 0 14 -91 71 -113 71 -9 0 -44 -16 -77 -35z"/>
<path d="M5870 4814 c-25 -15 -76 -45 -113 -67 l-69 -40 24 -19 c34 -27 95
-58 114 -58 20 0 154 71 202 107 40 30 33 42 -40 79 -59 30 -63 30 -118 -2z"/>
<path d="M6916 4762 c-55 -31 -101 -61 -103 -67 -3 -11 87 -65 109 -65 15 0
178 91 215 120 l22 17 -48 27 c-27 14 -59 26 -72 25 -13 0 -69 -26 -123 -57z"/>
<path d="M5273 4728 c-48 -27 -91 -53 -96 -57 -11 -11 114 -81 145 -81 33 0
125 53 155 88 l21 27 -41 25 c-89 54 -86 54 -184 -2z"/>
<path d="M6385 4648 c-77 -44 -196 -112 -265 -150 -69 -39 -181 -103 -250
-143 -69 -40 -172 -98 -230 -131 -58 -32 -181 -101 -275 -154 -93 -53 -200
-113 -237 -134 -38 -20 -68 -43 -68 -50 0 -18 38 -50 89 -76 l45 -22 -40 -24
c-21 -13 -45 -27 -53 -32 -20 -11 -8 -27 44 -58 l45 -26 87 48 c49 26 160 89
248 139 88 51 243 138 345 195 354 197 735 413 768 435 l33 23 -28 19 c-56 39
-88 46 -123 28 -17 -9 -39 -15 -48 -13 -10 2 24 27 83 62 109 65 119 74 103
93 -14 17 -96 53 -117 52 -9 -1 -79 -37 -156 -81z"/>
<path d="M5983 4658 l-112 -62 50 -33 c77 -52 87 -54 144 -26 74 38 185 104
185 112 0 9 -123 71 -141 71 -8 0 -64 -28 -126 -62z"/>
<path d="M8615 4657 c-31 -48 -81 -79 -515 -322 -223 -125 -499 -280 -615
-345 -115 -65 -232 -130 -260 -145 -27 -15 -57 -34 -67 -42 -9 -8 -22 -16 -30
-17 -7 -1 -33 -15 -58 -31 -25 -16 -90 -51 -145 -78 -55 -28 -102 -53 -105
-56 -5 -7 -27 -19 -110 -64 -30 -17 -143 -80 -250 -140 -211 -119 -934 -523
-1015 -567 -144 -78 -318 -89 -439 -28 -69 35 -452 259 -836 488 -107 64 -271
158 -364 209 -291 159 -397 235 -412 298 -4 12 -11 23 -16 23 -18 0 -5 -223
14 -252 9 -14 47 -43 85 -65 37 -22 118 -70 178 -105 61 -36 220 -130 355
-210 660 -391 973 -568 1043 -590 71 -22 209 -24 282 -4 75 20 142 55 700 368
132 74 267 150 300 168 163 91 655 367 855 480 124 70 270 152 325 182 106 59
527 295 860 483 110 62 213 127 230 144 27 29 29 38 33 124 5 121 2 133 -23
94z m-5038 -1050 c70 -40 157 -92 193 -114 36 -23 89 -56 118 -73 52 -31 52
-32 52 -82 0 -50 0 -50 -22 -36 -13 8 -38 23 -57 33 -32 16 -33 19 -17 30 15
12 7 19 -76 68 -51 30 -117 71 -147 91 -29 20 -55 36 -57 36 -2 0 -4 -9 -4
-20 0 -29 -19 -25 -75 18 -36 27 -51 46 -53 66 -3 27 3 56 12 56 3 0 62 -33
133 -73z"/>
<path d="M5532 4623 c-94 -54 -95 -49 12 -104 l61 -32 89 53 90 53 -75 38
c-41 21 -78 38 -84 38 -5 1 -47 -20 -93 -46z"/>
<path d="M6720 4647 c-14 -7 -47 -26 -74 -42 l-48 -28 23 -18 c13 -10 38 -26
55 -35 31 -17 33 -17 85 10 55 29 89 54 89 66 0 6 -92 60 -101 60 -2 0 -15 -6
-29 -13z"/>
<path d="M5036 4598 c-90 -48 -90 -47 22 -101 l64 -30 76 40 c42 22 78 45 79
50 5 13 -118 83 -144 83 -10 0 -53 -19 -97 -42z"/>
<path d="M5728 4515 c-42 -25 -79 -49 -82 -53 -3 -5 27 -25 65 -45 l71 -37 51
27 c70 35 127 72 127 81 0 9 -125 72 -143 72 -6 0 -47 -21 -89 -45z"/>
<path d="M2284 4464 c-82 -47 -200 -113 -262 -146 -61 -33 -110 -64 -107 -68
3 -5 12 -7 19 -4 8 3 17 0 22 -7 5 -8 3 -10 -7 -4 -8 4 -1 -5 15 -20 46 -45
70 -110 69 -186 -1 -37 -6 -76 -12 -88 -13 -24 -5 -27 18 -7 9 7 108 64 221
126 335 184 338 187 353 267 8 42 -17 124 -50 164 -28 32 -77 59 -111 59 -10
0 -85 -39 -168 -86z"/>
<path d="M5358 4521 c-56 -28 -108 -62 -108 -70 0 -9 128 -81 144 -81 6 0 47
21 90 47 89 52 90 50 -6 99 -56 29 -71 29 -120 5z"/>
<path d="M4838 4483 c-49 -26 -88 -49 -88 -53 0 -10 144 -80 165 -80 32 0 177
92 165 103 -6 5 -148 77 -152 77 -2 0 -42 -21 -90 -47z"/>
<path d="M5115 4386 c-43 -22 -78 -45 -78 -51 0 -5 33 -28 73 -49 l73 -39 64
34 c34 19 73 41 85 50 21 17 21 17 -33 45 -109 57 -98 56 -184 10z"/>
<path d="M5512 4388 c-39 -24 -72 -45 -72 -48 0 -11 119 -70 140 -70 23 0 99
39 133 68 16 15 16 16 0 35 -22 24 -86 57 -110 57 -10 0 -51 -19 -91 -42z"/>
<path d="M4645 4379 c-33 -17 -71 -38 -84 -46 l-23 -15 53 -32 c30 -18 69 -38
87 -44 37 -13 36 -13 139 46 l62 36 -77 43 c-42 23 -81 42 -87 42 -5 0 -37
-14 -70 -30z"/>
<path d="M5339 4286 c-60 -31 -89 -50 -89 -56 0 -3 32 -20 70 -39 69 -34 70
-35 105 -18 19 9 54 28 77 43 l42 27 -65 33 c-35 18 -71 33 -80 34 -9 0 -36
-11 -60 -24z"/>
<path d="M4873 4252 c-46 -26 -81 -51 -80 -57 2 -5 34 -25 72 -44 60 -30 72
-33 98 -23 39 15 177 94 177 101 0 9 -146 71 -166 71 -11 0 -56 -22 -101 -48z"/>
<path d="M4388 4238 c-54 -29 -98 -56 -98 -60 0 -13 144 -88 168 -88 22 0 103
39 191 93 l35 21 -89 43 c-49 24 -93 43 -99 43 -6 0 -55 -24 -108 -52z"/>
<path d="M5121 4163 l-84 -46 59 -33 c77 -44 96 -49 130 -31 52 27 115 78 109
87 -8 12 -83 56 -110 64 -13 3 -49 -11 -104 -41z"/>
<path d="M4623 4107 c-51 -28 -89 -55 -85 -58 4 -4 37 -24 74 -44 l67 -36 62
32 c74 37 139 79 139 89 0 9 -132 70 -151 70 -8 0 -55 -24 -106 -53z"/>
<path d="M4173 4114 c-92 -48 -133 -74 -133 -83 0 -11 142 -81 163 -81 18 0
121 53 184 95 l32 21 -57 28 c-122 61 -113 60 -189 20z"/>
<path d="M4945 4064 c-28 -14 -87 -47 -132 -72 l-82 -46 67 -38 c37 -21 75
-38 85 -38 32 0 272 142 256 152 -12 9 -135 68 -139 68 -3 0 -28 -12 -55 -26z"/>
<path d="M1478 4017 c-87 -52 -134 -79 -258 -148 -94 -53 -105 -72 -105 -177
0 -73 4 -94 25 -130 29 -52 82 -73 128 -53 71 32 422 234 438 252 23 25 26
122 6 181 -18 51 -103 130 -137 127 -5 0 -49 -24 -97 -52z"/>
<path d="M4380 3974 c-47 -25 -89 -49 -93 -53 -5 -5 22 -25 58 -46 54 -30 74
-36 102 -32 31 5 183 91 183 103 0 6 -145 74 -157 74 -4 0 -46 -21 -93 -46z"/>
<path d="M3898 3963 c-81 -44 -86 -49 -72 -65 9 -9 44 -31 78 -49 l62 -32 66
33 c37 18 79 43 94 55 l27 22 -72 41 c-40 23 -78 42 -84 42 -7 0 -51 -22 -99
-47z"/>
<path d="M8615 3930 c-55 -11 -146 -54 -167 -79 -44 -52 -52 -83 -56 -223 -4
-133 -4 -137 23 -186 58 -106 191 -210 413 -319 l132 -66 63 33 c228 120 385
244 437 346 23 45 25 60 25 189 0 151 -6 176 -61 230 -35 35 -117 71 -179 80
-68 9 -169 -10 -235 -44 -53 -28 -55 -30 -52 -66 3 -39 -10 -57 -35 -48 -18 7
-16 23 4 45 9 10 14 19 12 21 -59 36 -158 78 -203 86 -66 12 -64 12 -121 1z
m-77 -54 c-10 -7 -15 -16 -11 -19 3 -4 1 -7 -5 -7 -21 0 -52 -63 -52 -105 0
-52 24 -90 95 -151 58 -51 101 -75 273 -158 57 -27 101 -50 99 -52 -8 -9 -227
80 -328 132 -68 36 -143 99 -171 144 -27 42 -33 107 -12 138 22 34 54 68 54
58 0 -4 12 2 28 13 15 11 32 20 37 20 6 0 2 -6 -7 -13z"/>
<path d="M4620 3881 c-30 -15 -70 -37 -89 -49 l-34 -20 44 -23 c66 -35 100
-49 117 -49 19 0 172 92 172 103 0 9 -123 67 -143 67 -7 0 -37 -13 -67 -29z"/>
<path d="M4140 3837 c-41 -23 -75 -49 -75 -57 0 -7 30 -30 66 -49 l67 -36 38
18 c47 23 154 90 154 98 0 10 -128 69 -152 69 -12 0 -57 -19 -98 -43z"/>
<path d="M4354 3734 c-54 -29 -102 -58 -106 -62 -10 -10 120 -82 146 -82 18 0
216 110 216 120 0 4 -24 19 -52 33 -103 51 -95 51 -204 -9z"/>
<path d="M4779 3729 c-46 -28 -88 -53 -92 -56 -5 -3 33 -32 84 -64 50 -33 90
-62 87 -64 -2 -2 -46 18 -98 45 -52 27 -103 50 -114 50 -25 0 -166 -81 -166
-96 0 -11 127 -92 218 -138 l32 -17 178 97 c97 53 192 108 210 121 l33 25 -33
23 c-74 50 -214 125 -233 125 -12 0 -60 -23 -106 -51z"/>
<path d="M2165 3686 c-69 -23 -136 -58 -450 -236 -60 -34 -123 -69 -140 -78
-16 -8 -66 -36 -110 -62 -44 -26 -147 -84 -230 -131 -82 -46 -162 -96 -177
-110 -28 -27 -28 -28 -28 -162 0 -132 1 -136 26 -167 15 -17 45 -40 68 -52 22
-11 124 -68 226 -126 102 -58 235 -133 295 -167 61 -34 331 -188 600 -342 971
-555 1030 -588 1109 -602 86 -16 243 -14 302 4 43 13 135 61 517 271 53 30
141 78 195 108 53 29 120 66 147 81 28 15 78 43 111 62 34 18 73 45 88 60 25
25 26 29 26 154 0 127 0 128 -29 156 -28 27 -264 169 -292 175 -8 2 -16 6 -19
10 -15 19 -304 177 -314 171 -6 -3 -8 -3 -4 2 8 8 -35 36 -194 125 -51 29
-120 69 -153 89 -33 19 -66 36 -74 38 -8 1 -18 8 -22 15 -5 7 -9 9 -9 3 0 -5
-5 -2 -11 8 -5 9 -18 17 -29 17 -10 0 -20 4 -22 9 -4 12 -298 183 -298 173 0
-4 -4 -2 -8 4 -9 14 -215 134 -229 134 -6 0 -13 4 -15 8 -1 5 -59 42 -128 82
-69 40 -179 105 -245 144 -224 131 -245 140 -349 143 -57 2 -106 -2 -131 -11z
m308 -67 c23 -12 104 -57 181 -100 76 -44 143 -76 149 -72 5 3 7 2 4 -4 -5 -7
138 -97 268 -169 26 -14 323 -186 440 -254 50 -29 164 -95 255 -147 91 -53
176 -103 190 -112 14 -10 52 -32 85 -51 33 -18 74 -41 90 -50 341 -196 422
-244 434 -255 10 -9 11 -21 4 -41 -8 -23 -56 -53 -304 -188 -161 -89 -355
-196 -429 -238 -224 -127 -242 -137 -320 -176 -63 -31 -87 -38 -152 -41 -86
-3 -122 9 -268 93 -87 51 -419 240 -470 268 -189 106 -367 207 -720 408 -228
130 -480 274 -560 319 -81 45 -152 92 -159 104 -18 28 -12 32 222 162 106 59
233 131 282 160 50 29 126 73 170 97 44 24 159 90 255 145 202 116 289 163
302 163 5 0 28 -10 51 -21z m-393 -100 c12 -16 20 -32 17 -35 -8 -8 -150 -90
-272 -157 -60 -33 -129 -73 -152 -89 -23 -15 -52 -28 -64 -28 -24 0 -59 26
-59 45 0 9 146 96 350 207 25 14 67 39 94 57 28 17 53 31 57 31 4 0 17 -14 29
-31z"/>
<path d="M2790 3226 c-14 -7 -54 -29 -90 -48 -196 -104 -479 -262 -476 -265 6
-7 99 41 376 193 52 29 123 66 156 82 34 16 64 35 68 41 10 15 -3 14 -34 -3z"/>
<path d="M2855 3180 c-4 -6 -27 -21 -53 -35 -26 -13 -58 -34 -72 -46 -20 -17
-17 -16 20 5 25 14 69 37 98 52 28 14 52 27 52 30 0 9 -39 4 -45 -6z"/>
<path d="M2916 3125 c-16 -14 -34 -25 -39 -25 -6 0 -8 -3 -4 -6 5 -5 97 43 97
52 0 12 -29 1 -54 -21z"/>
<path d="M2620 3054 c-36 -20 -73 -43 -82 -51 -10 -9 -18 -12 -18 -8 0 4 -8 1
-17 -8 -10 -8 -22 -16 -28 -17 -17 -2 -78 -41 -72 -46 7 -7 170 75 259 130 14
8 34 37 25 36 -1 0 -31 -17 -67 -36z"/>
<path d="M2820 3072 c0 -4 -38 -25 -85 -46 -46 -22 -81 -44 -78 -49 3 -5 9 -4
13 2 4 7 11 11 16 9 15 -5 155 73 149 83 -7 11 -15 12 -15 1z"/>
<path d="M3068 3054 c-16 -8 -28 -19 -28 -24 0 -15 12 -12 55 15 29 18 35 24
20 24 -11 0 -32 -7 -47 -15z"/>
<path d="M3150 3004 c-66 -37 -110 -68 -110 -77 0 -10 164 80 168 93 6 16 -9
12 -58 -16z"/>
<path d="M2909 2964 c-12 -14 -11 -16 5 -13 11 2 21 10 24 17 5 17 -13 15 -29
-4z"/>
<path d="M3190 2944 c-30 -19 -49 -34 -42 -34 15 0 132 58 132 65 0 14 -41 0
-90 -31z"/>
<path d="M2611 2961 c-22 -6 -43 -31 -26 -31 10 0 65 30 65 35 0 6 -7 5 -39
-4z"/>
<path d="M3325 2922 c-22 -9 -60 -29 -85 -43 -41 -24 -87 -49 -210 -117 -25
-13 -83 -46 -130 -72 -47 -26 -125 -69 -175 -95 -142 -76 -319 -178 -326 -188
-3 -5 -10 -8 -15 -7 -5 1 -10 -2 -11 -7 -3 -9 61 -53 77 -53 12 0 223 109 330
170 36 20 90 51 120 67 305 167 549 307 550 315 0 8 -64 48 -76 47 -5 0 -27
-8 -49 -17z"/>
<path d="M2807 2905 c3 -8 9 -12 14 -9 12 7 11 11 -5 17 -10 4 -13 1 -9 -8z"/>
<path d="M2368 2903 c7 -3 16 -2 19 1 4 3 -2 6 -13 5 -11 0 -14 -3 -6 -6z"/>
<path d="M3090 2889 c-29 -15 -31 -18 -13 -19 12 0 25 5 28 10 4 6 10 8 14 6
4 -3 13 -1 20 3 29 18 -16 18 -49 0z"/>
<path d="M2150 2881 c-34 -17 -96 -50 -260 -140 -43 -23 -66 -41 -55 -41 11 0
31 8 45 17 32 22 149 85 228 123 75 35 113 60 92 60 -8 -1 -31 -9 -50 -19z"/>
<path d="M2650 2885 c-14 -8 -20 -14 -14 -15 5 0 19 7 30 15 24 18 16 19 -16
0z"/>
<path d="M2741 2881 c-21 -13 -23 -41 -3 -33 11 4 12 7 3 10 -8 3 -7 8 6 18
20 15 16 19 -6 5z"/>
<path d="M2930 2869 c0 -5 5 -7 10 -4 6 3 10 8 10 11 0 2 -4 4 -10 4 -5 0 -10
-5 -10 -11z"/>
<path d="M2570 2850 c-9 -6 -10 -10 -3 -10 6 0 15 5 18 10 8 12 4 12 -15 0z"/>
<path d="M3022 2851 c-11 -7 -11 -9 2 -14 9 -4 16 -2 16 3 0 5 8 11 18 13 14
4 14 5 -3 6 -11 0 -26 -3 -33 -8z"/>
<path d="M2885 2840 c-3 -6 1 -7 9 -4 18 7 21 14 7 14 -6 0 -13 -4 -16 -10z"/>
<path d="M2846 2824 c-11 -8 -16 -14 -10 -14 13 0 39 18 34 24 -3 2 -14 -2
-24 -10z"/>
<path d="M3506 2780 c-33 -17 -64 -34 -70 -39 -6 -5 -96 -56 -201 -114 -256
-141 -564 -315 -598 -340 l-28 -19 22 -24 c23 -25 46 -33 33 -12 -4 6 -3 8 4
5 11 -8 116 47 472 246 80 44 183 102 230 128 47 26 118 65 159 88 41 22 77
41 80 41 3 0 14 7 24 14 17 13 15 15 -16 35 -19 12 -38 21 -43 21 -5 0 -36
-14 -68 -30z"/>
<path d="M2727 2761 c-58 -34 -71 -46 -32 -29 46 20 95 48 95 53 0 10 -16 4
-63 -24z"/>
<path d="M2872 2773 c-13 -5 -7 -23 9 -23 6 0 8 4 4 9 -3 5 3 12 12 14 12 3
13 5 3 5 -8 0 -21 -2 -28 -5z"/>
<path d="M2090 2760 c-9 -6 -10 -10 -3 -10 6 0 15 5 18 10 8 12 4 12 -15 0z"/>
<path d="M2490 2746 c0 -2 7 -7 16 -10 8 -3 12 -2 9 4 -6 10 -25 14 -25 6z"/>
<path d="M2025 2730 c3 -5 -1 -10 -9 -10 -9 0 -16 -4 -16 -10 0 -5 -7 -10 -17
-10 -9 0 -13 -3 -10 -7 9 -8 77 29 71 39 -3 4 -10 8 -15 8 -6 0 -7 -4 -4 -10z"/>
<path d="M3697 2728 c-15 -6 -24 -14 -21 -20 4 -6 2 -8 -3 -5 -6 4 -33 -5 -59
-19 -175 -93 -362 -195 -439 -239 -78 -45 -139 -79 -216 -120 -11 -5 -19 -13
-19 -17 0 -5 -5 -8 -11 -8 -20 0 -158 -83 -153 -92 3 -4 -9 -11 -26 -15 -26
-5 -29 -8 -16 -15 11 -6 25 -3 44 10 15 10 41 26 57 34 30 15 155 85 210 117
17 9 111 61 210 116 99 54 238 129 308 168 128 70 176 101 167 110 -3 2 -17 0
-33 -5z"/>
<path d="M2355 2675 c-44 -28 -41 -34 6 -10 16 9 35 13 41 9 6 -4 8 -3 4 4 -3
6 2 13 11 15 15 4 15 5 -2 6 -11 0 -38 -11 -60 -24z"/>
<path d="M3769 2667 c-24 -13 -93 -50 -154 -81 -60 -32 -118 -63 -129 -68 -15
-8 -16 -12 -5 -20 11 -8 10 -9 -4 -4 -18 6 -67 -12 -67 -25 0 -4 -11 -10 -24
-13 -14 -3 -62 -28 -108 -55 -134 -78 -360 -201 -369 -201 -5 0 -9 -4 -9 -9 0
-5 -10 -12 -22 -15 -13 -3 -34 -14 -47 -24 -18 -15 -20 -20 -9 -24 8 -3 108
46 224 109 115 63 236 130 269 147 33 18 98 54 145 81 150 84 173 97 267 147
51 27 95 54 98 58 12 20 -15 18 -56 -3z"/>
<path d="M1920 2670 c0 -5 7 -7 15 -4 8 4 15 8 15 10 0 2 -7 4 -15 4 -8 0 -15
-4 -15 -10z"/>
<path d="M2560 2670 c0 -5 4 -10 9 -10 6 0 13 5 16 10 3 6 -1 10 -9 10 -9 0
-16 -4 -16 -10z"/>
<path d="M2705 2670 c2 -4 -18 -19 -45 -34 -28 -15 -50 -30 -50 -32 0 -4 123
59 138 71 2 1 -9 3 -22 3 -14 0 -24 -4 -21 -8z"/>
<path d="M2479 2623 c-24 -16 -52 -29 -61 -31 -26 -4 -113 -55 -101 -59 13 -5
148 62 158 77 3 5 14 10 24 10 10 0 24 7 31 15 19 23 -1 18 -51 -12z"/>
<path d="M3845 2609 c-22 -12 -83 -45 -135 -74 -52 -29 -131 -72 -175 -95 -44
-24 -161 -88 -260 -143 -99 -55 -207 -115 -240 -133 -33 -17 -79 -42 -102 -56
l-43 -25 48 -21 c27 -12 55 -22 62 -22 12 0 89 40 370 195 123 68 305 168 350
191 106 58 260 149 260 155 0 11 -65 49 -81 49 -8 -1 -32 -10 -54 -21z"/>
<path d="M2565 2592 c-28 -10 -126 -64 -122 -69 6 -6 80 23 120 47 49 29 50
37 2 22z"/>
<path d="M2206 2492 c-2 -4 4 -8 14 -8 10 0 16 4 14 8 -3 4 -9 8 -14 8 -5 0
-11 -4 -14 -8z"/>
<path d="M3259 2019 c-52 -19 -58 -83 -9 -109 32 -17 94 -12 118 10 63 59 -18
132 -109 99z"/>
<path d="M7715 3376 c-50 -30 -89 -88 -105 -155 -22 -94 5 -143 109 -196 37
-18 94 -50 127 -69 32 -20 64 -36 69 -36 6 0 10 28 11 63 1 80 16 134 57 194
48 69 49 71 36 79 -8 4 -9 3 -5 -4 10 -17 -1 -15 -32 6 -48 33 -126 77 -159
91 -18 7 -33 20 -33 27 0 16 26 19 33 4 3 -6 4 -5 3 2 -5 24 -68 20 -111 -6z"/>
<path d="M7840 3360 c0 -5 5 -10 11 -10 5 0 7 5 4 10 -3 6 -8 10 -11 10 -2 0
-4 -4 -4 -10z"/>
<path d="M7920 3311 c0 -10 58 -36 65 -29 3 2 -11 12 -30 21 -19 9 -35 13 -35
8z"/>
<path d="M7181 2754 c-93 -84 -110 -230 -35 -295 11 -9 81 -48 158 -87 l138
-72 -6 33 c-7 40 7 121 30 174 9 21 16 42 15 46 -1 5 2 7 6 4 5 -2 20 11 35
28 l28 33 -25 16 c-14 9 -23 21 -20 26 4 6 0 10 -8 10 -8 0 -20 7 -27 15 -9
11 -16 12 -26 4 -9 -8 -22 -6 -48 6 -20 10 -36 22 -36 27 0 5 -4 7 -9 3 -5 -3
-12 -1 -16 5 -3 5 3 10 14 10 12 0 21 -4 21 -9 0 -5 10 -13 23 -17 12 -4 25
-12 29 -18 10 -15 20 -2 12 18 -3 9 -14 16 -23 16 -14 0 -14 2 -1 11 12 8 9 9
-9 4 -19 -6 -23 -4 -18 8 4 11 0 14 -16 10 -16 -3 -18 -2 -9 5 11 7 9 10 -7
15 -14 3 -21 0 -21 -9 0 -8 -5 -14 -11 -14 -5 0 -7 -5 -4 -10 8 -12 -44 9 -66
27 -22 18 -24 17 -68 -23z"/>
<path d="M7280 2780 c-12 -8 -11 -10 8 -10 12 0 22 5 22 10 0 13 -11 13 -30 0z"/>
<path d="M6575 2302 c-9 -9 6 -21 20 -15 9 3 15 -1 15 -11 0 -9 8 -16 20 -16
11 0 20 -5 20 -11 0 -5 5 -7 10 -4 6 4 7 11 4 17 -5 8 -1 9 12 5 18 -7 18 -7
1 7 -11 8 -26 12 -35 9 -9 -4 -13 -2 -9 4 7 11 -48 24 -58 15z"/>
<path d="M6487 2279 c-68 -36 -116 -145 -103 -234 6 -34 15 -51 40 -71 27 -22
284 -165 324 -181 9 -4 12 12 12 60 0 78 18 133 65 199 l36 49 -23 19 c-15 13
-18 19 -9 20 11 0 10 4 -3 19 -10 10 -14 21 -9 23 4 3 3 3 -4 2 -19 -5 -68 23
-51 29 7 2 4 3 -6 1 -11 -2 -28 6 -38 18 -16 19 -21 20 -42 9 -20 -11 -29 -10
-67 10 -24 13 -48 30 -52 37 -11 16 -25 15 -70 -9z m231 -69 c17 -8 32 -18 32
-22 0 -4 8 -8 18 -9 10 0 12 -3 5 -6 -15 -6 -103 37 -103 50 0 5 3 7 8 5 4 -3
22 -11 40 -18z"/>
<path d="M5054 1899 c-75 -37 -88 -59 -95 -162 -6 -106 0 -121 63 -167 22 -17
36 -30 29 -30 -6 0 -40 -19 -76 -42 l-65 -43 0 -103 c0 -57 5 -113 11 -124 27
-50 145 -122 200 -120 16 0 83 31 154 72 l125 70 117 -67 c100 -58 124 -68
164 -67 52 0 113 32 167 84 l32 32 0 108 0 108 -52 39 c-29 21 -61 41 -72 46
-16 6 -13 11 25 38 66 47 67 48 61 157 -5 110 -10 119 -87 163 -88 51 -153 39
-287 -52 -32 -22 -63 -39 -68 -39 -6 0 -39 18 -72 41 -129 85 -191 98 -274 58z
m66 -323 c0 -2 -7 -7 -16 -10 -8 -3 -12 -2 -9 4 6 10 25 14 25 6z"/>
</g>
</svg>
